<svg xmlns="http://www.w3.org/2000/svg" width="44" height="44" viewBox="0 0 44 44">
  <g id="Group_238" data-name="Group 238" transform="translate(22609 21824)">
    <g id="Group_237" data-name="Group 237" transform="translate(-22587.1 -21810.586) rotate(45)">
      <path id="선_9" data-name="선 9" d="M12,1H0A1,1,0,0,1-1,0,1,1,0,0,1,0-1H12a1,1,0,0,1,1,1A1,1,0,0,1,12,1Z" fill="#f8f8f8"/>
      <path id="선_10" data-name="선 10" d="M0,13a1,1,0,0,1-1-1V0A1,1,0,0,1,0-1,1,1,0,0,1,1,0V12A1,1,0,0,1,0,13Z" transform="translate(12)" fill="#f8f8f8"/>
      <path id="선_11" data-name="선 11" d="M0,12.071a1,1,0,0,1-.707-.293,1,1,0,0,1,0-1.414L10.364-.707a1,1,0,0,1,1.414,0,1,1,0,0,1,0,1.414L.707,11.778A1,1,0,0,1,0,12.071Z" transform="translate(0.929 0)" fill="#f8f8f8"/>
    </g>
    <g id="Ellipse_256" data-name="Ellipse 256" transform="translate(-22609 -21824)" fill="none" stroke="#f8f8f8" stroke-width="2">
      <circle cx="22" cy="22" r="22" stroke="none"/>
      <circle cx="22" cy="22" r="21" fill="none"/>
    </g>
  </g>
</svg>
