<svg xmlns="http://www.w3.org/2000/svg" width="12.324" height="13.199" viewBox="0 0 12.324 13.199">
  <g id="Group_92" data-name="Group 92" transform="translate(5.724) rotate(45)">
    <path id="선_9" data-name="선 9" d="M8.667,1.333h-8A.667.667,0,0,1,.667,0h8a.667.667,0,1,1,0,1.333Z" transform="translate(0 0)" fill="#e5e5e5"/>
    <path id="선_10" data-name="선 10" d="M.667,9.333A.667.667,0,0,1,0,8.667v-8a.667.667,0,0,1,1.333,0v8A.667.667,0,0,1,.667,9.333Z" transform="translate(8 0)" fill="#e5e5e5"/>
    <path id="선_11" data-name="선 11" d="M.667,8.714A.667.667,0,0,1,.2,7.576L7.576.2a.667.667,0,1,1,.943.943L1.138,8.519A.665.665,0,0,1,.667,8.714Z" transform="translate(0.619 0)" fill="#e5e5e5"/>
  </g>
</svg>
