<svg xmlns="http://www.w3.org/2000/svg" xmlns:xlink="http://www.w3.org/1999/xlink" width="24" height="24" viewBox="0 0 24 24">
  <defs>
    <clipPath id="clip-path">
      <rect id="Rectangle_1417" data-name="Rectangle 1417" width="24" height="24" fill="#fff" stroke="#707070" stroke-width="1"/>
    </clipPath>
  </defs>
  <g id="Mask_Group_615" data-name="Mask Group 615" transform="translate(24 24) rotate(180)" clip-path="url(#clip-path)">
    <g id="Group_942" data-name="Group 942" transform="translate(6 8.707)">
      <path id="Path_615" data-name="Path 615" d="M.448,7.579a.543.543,0,0,0,.5-.5L1.317.448A.415.415,0,0,0,.87,0a.543.543,0,0,0-.5.5L0,7.132A.415.415,0,0,0,.448,7.579Z" transform="translate(5.36 0) rotate(45)" fill="#fff"/>
      <path id="Path_616" data-name="Path 616" d="M.87,7.579a.415.415,0,0,0,.447-.447L.948.5a.543.543,0,0,0-.5-.5A.415.415,0,0,0,0,.448L.37,7.079A.543.543,0,0,0,.87,7.579Z" transform="translate(4.95 0.933) rotate(-45)" fill="#fff"/>
    </g>
  </g>
</svg>
