<svg xmlns="http://www.w3.org/2000/svg" xmlns:xlink="http://www.w3.org/1999/xlink" width="64" height="60" viewBox="0 0 64 60"><defs><style>.a,.c{fill:none;}.b{clip-path:url(#a);}.c{stroke:#f8f8f8;stroke-miterlimit:10;stroke-width:4px;}.d{fill:#fff;}</style><clipPath id="a"><rect class="a" width="64" height="60"/></clipPath></defs><g class="b"><rect class="c" width="59.992" height="40.921" rx="8" transform="translate(2.004 16.903)"/><rect class="c" width="9.738" height="8.889" rx="2" transform="translate(26.94 30.466)"/><path class="d" d="M31.082,8.7a4.956,4.956,0,0,1,5.045-4.849H51.013A4.955,4.955,0,0,1,56.057,8.7V12h4.009V8.7A8.893,8.893,0,0,0,51.013,0H36.126a8.893,8.893,0,0,0-9.053,8.7V12h4.009Z" transform="translate(-11.569 0)"/><line class="c" x1="24.936" y1="7.82" transform="translate(2.004 27.091)"/><line class="c" y1="7.82" x2="24.936" transform="translate(36.937 27.091)"/></g></svg>