<svg xmlns="http://www.w3.org/2000/svg" xmlns:xlink="http://www.w3.org/1999/xlink" width="84" height="80" viewBox="0 0 84 80">
  <defs>
    <clipPath id="clip-path">
      <rect id="사각형_31717" data-name="사각형 31717" width="84" height="80" transform="translate(263 4822)" fill="#fff" stroke="#707070" stroke-width="1"/>
    </clipPath>
    <clipPath id="clip-path-2">
      <rect id="사각형_31716" data-name="사각형 31716" width="68.101" height="78.593" fill="none"/>
    </clipPath>
  </defs>
  <g id="마스크_그룹_664" data-name="마스크 그룹 664" transform="translate(-263 -4822)" clip-path="url(#clip-path)">
    <g id="그룹_1202" data-name="그룹 1202" transform="translate(262.418 4822.703)">
      <g id="그룹_1200" data-name="그룹 1200" clip-path="url(#clip-path-2)">
        <rect id="사각형_31715" data-name="사각형 31715" width="60.14" height="70.505" rx="7.646" transform="translate(3.981 4.044)" fill="none" stroke="#fefeff" stroke-miterlimit="10" stroke-width="3"/>
        <path id="패스_744" data-name="패스 744" d="M58.765,83.9l4.327,3.17,5.3-8.292" transform="translate(-14.37 -26.363)" fill="none" stroke="#fefeff" stroke-linecap="round" stroke-miterlimit="10" stroke-width="3"/>
        <line id="선_156" data-name="선 156" x2="42.338" transform="translate(12.94 42.739)" fill="none" stroke="#fefeff" stroke-linecap="round" stroke-miterlimit="10" stroke-width="3"/>
        <line id="선_157" data-name="선 157" x2="24.392" transform="translate(12.94 51.952)" fill="none" stroke="#fefeff" stroke-linecap="round" stroke-miterlimit="10" stroke-width="3"/>
        <line id="선_158" data-name="선 158" x2="24.654" transform="translate(12.94 61.165)" fill="none" stroke="#fefeff" stroke-linecap="round" stroke-miterlimit="10" stroke-width="3"/>
        <line id="선_160" data-name="선 160" x2="19.12" transform="translate(35.553 16.482)" fill="none" stroke="#fefeff" stroke-linecap="round" stroke-miterlimit="10" stroke-width="3"/>
        <line id="선_161" data-name="선 161" x2="19.12" transform="translate(35.553 24.773)" fill="none" stroke="#fefeff" stroke-linecap="round" stroke-miterlimit="10" stroke-width="3"/>
        <line id="선_162" data-name="선 162" x2="19.12" transform="translate(35.553 33.065)" fill="none" stroke="#fefeff" stroke-linecap="round" stroke-miterlimit="10" stroke-width="3"/>
        <path id="패스_745" data-name="패스 745" d="M31.853,38.336H16.5a7.541,7.541,0,0,1,7.48-7.6h.394A7.541,7.541,0,0,1,31.853,38.336Z" transform="translate(-1.674 -5.558)" fill="none" stroke="#fefeff" stroke-miterlimit="10" stroke-width="3"/>
        <ellipse id="타원_577" data-name="타원 577" cx="3.15" cy="3.2" rx="3.15" ry="3.2" transform="translate(19.154 15.58)" fill="none" stroke="#fefeff" stroke-miterlimit="10" stroke-width="3"/>
      </g>
    </g>
  </g>
</svg>
