<svg xmlns="http://www.w3.org/2000/svg" xmlns:xlink="http://www.w3.org/1999/xlink" width="84" height="80" viewBox="0 0 84 80">
  <defs>
    <clipPath id="clip-path">
      <rect id="사각형_31754" data-name="사각형 31754" width="84" height="80" transform="translate(791 4518)" fill="#fff" stroke="#707070" stroke-width="1"/>
    </clipPath>
    <clipPath id="clip-path-2">
      <rect id="사각형_31753" data-name="사각형 31753" width="80.446" height="78.174" fill="none"/>
    </clipPath>
  </defs>
  <g id="마스크_그룹_674" data-name="마스크 그룹 674" transform="translate(-791 -4518)" clip-path="url(#clip-path)">
    <g id="그룹_1229" data-name="그룹 1229" transform="translate(792.777 4518.913)">
      <g id="그룹_1228" data-name="그룹 1228" transform="translate(0 0)" clip-path="url(#clip-path-2)">
        <rect id="사각형_31752" data-name="사각형 31752" width="73.15" height="8.426" rx="2" transform="translate(3.648 22.186)" fill="none" stroke="#fefeff" stroke-miterlimit="10" stroke-width="3"/>
        <line id="선_214" data-name="선 214" x2="63.266" transform="translate(9.621 64.725)" fill="none" stroke="#fefeff" stroke-linecap="round" stroke-miterlimit="10" stroke-width="3"/>
        <line id="선_215" data-name="선 215" x2="39.763" transform="translate(21.372 72.559)" fill="none" stroke="#fefeff" stroke-linecap="round" stroke-miterlimit="10" stroke-width="3"/>
        <line id="선_216" data-name="선 216" y2="11.668" transform="translate(6.911 32.153)" fill="none" stroke="#fefeff" stroke-linecap="round" stroke-miterlimit="10" stroke-width="3"/>
        <line id="선_217" data-name="선 217" y2="11.668" transform="translate(72.887 32.153)" fill="none" stroke="#fefeff" stroke-linecap="round" stroke-miterlimit="10" stroke-width="3"/>
        <path id="패스_793" data-name="패스 793" d="M30.309,21.6H13.786a8.115,8.115,0,0,1,8.05-8.177h.424A8.115,8.115,0,0,1,30.309,21.6Z" transform="translate(0.324 0.582)" fill="none" stroke="#fefeff" stroke-miterlimit="10" stroke-width="3"/>
        <path id="패스_794" data-name="패스 794" d="M26.261,4.443a3.39,3.39,0,1,1-6.779,0,3.39,3.39,0,1,1,6.779,0Z" transform="translate(-0.711 2.679)" fill="none" stroke="#fefeff" stroke-miterlimit="10" stroke-width="3"/>
        <path id="패스_795" data-name="패스 795" d="M52.588,21.6H36.065a8.115,8.115,0,0,1,8.05-8.177h.424A8.115,8.115,0,0,1,52.588,21.6Z" transform="translate(-3.726 0.582)" fill="none" stroke="#fefeff" stroke-miterlimit="10" stroke-width="3"/>
        <path id="패스_796" data-name="패스 796" d="M48.54,4.443a3.39,3.39,0,1,1-6.779,0,3.39,3.39,0,1,1,6.779,0Z" transform="translate(-4.761 2.679)" fill="none" stroke="#fefeff" stroke-miterlimit="10" stroke-width="3"/>
        <path id="패스_797" data-name="패스 797" d="M73.677,21.6H57.154a8.115,8.115,0,0,1,8.05-8.177h.424A8.115,8.115,0,0,1,73.677,21.6Z" transform="translate(-7.559 0.582)" fill="none" stroke="#fefeff" stroke-miterlimit="10" stroke-width="3"/>
        <path id="패스_798" data-name="패스 798" d="M69.628,4.443a3.39,3.39,0,1,1-6.779,0,3.39,3.39,0,1,1,6.779,0Z" transform="translate(-8.594 2.679)" fill="none" stroke="#fefeff" stroke-miterlimit="10" stroke-width="3"/>
        <path id="패스_799" data-name="패스 799" d="M56.406,74.782H33.791v-1.6a9.52,9.52,0,0,1,9.444-9.594h3.728a9.52,9.52,0,0,1,9.444,9.594Z" transform="translate(-3.845 -10.72)" fill="none" stroke="#fefeff" stroke-miterlimit="10" stroke-width="3"/>
        <path id="패스_800" data-name="패스 800" d="M50.835,52.1A4.64,4.64,0,1,1,46.2,47.383,4.676,4.676,0,0,1,50.835,52.1Z" transform="translate(-4.942 -8.651)" fill="none" stroke="#fefeff" stroke-miterlimit="10" stroke-width="3"/>
      </g>
    </g>
  </g>
</svg>
