<svg xmlns="http://www.w3.org/2000/svg" width="131" height="47" viewBox="0 0 131 47">
  <g id="Group_1104" data-name="Group 1104" transform="translate(-210 -2036)">
    <g id="Rectangle_305" data-name="Rectangle 305" transform="translate(210 2036)" fill="#fff" stroke="#fff" stroke-width="1">
      <rect width="131" height="47" rx="23.5" stroke="none"/>
      <rect x="0.5" y="0.5" width="130" height="46" rx="23" fill="none"/>
    </g>
    <g id="Group_281" data-name="Group 281" transform="translate(269 2051)">
      <text id="SUBMIT" transform="translate(0 13.999)" fill="#121212" font-size="14" font-family="Pretendard-Medium, Pretendard" font-weight="500"><tspan x="0" y="0">SUBMIT</tspan></text>
    </g>
    <g id="Ellipse_286" data-name="Ellipse 286" transform="translate(210 2036)" fill="rgba(13,24,40,0.8)" stroke="#fff" stroke-width="1">
      <circle cx="23.5" cy="23.5" r="23.5" stroke="none"/>
      <circle cx="23.5" cy="23.5" r="23" fill="none"/>
    </g>
    <g id="Group_300" data-name="Group 300" transform="translate(233.778 2052) rotate(45)">
      <path id="선_9" data-name="선 9" d="M10.214,1.545H.786A.779.779,0,0,1,0,.773.779.779,0,0,1,.786,0h9.429A.779.779,0,0,1,11,.773.779.779,0,0,1,10.214,1.545Z" transform="translate(0 0)" fill="#fdfdfd"/>
      <path id="선_10" data-name="선 10" d="M.773,11A.779.779,0,0,1,0,10.214V.786A.779.779,0,0,1,.773,0a.779.779,0,0,1,.773.786v9.429A.779.779,0,0,1,.773,11Z" transform="translate(9.455 0)" fill="#fdfdfd"/>
      <path id="선_11" data-name="선 11" d="M.787,10.282A.787.787,0,0,1,.23,8.939L8.939.23a.787.787,0,0,1,1.112,1.112L1.343,10.052A.784.784,0,0,1,.787,10.282Z" transform="translate(0.718 0)" fill="#fdfdfd"/>
    </g>
  </g>
</svg>
