<svg id="Component_23_1" data-name="Component 23 – 1" xmlns="http://www.w3.org/2000/svg" xmlns:xlink="http://www.w3.org/1999/xlink" width="113" height="36" viewBox="0 0 113 36">
  <defs>
    <clipPath id="clip-path">
      <rect id="Rectangle_31617" data-name="Rectangle 31617" width="12" height="12" transform="translate(-2812 -10047)" fill="#fff"/>
    </clipPath>
  </defs>
  <rect id="Rectangle_305" data-name="Rectangle 305" width="113" height="36" rx="18" fill="#fff"/>
  <g id="Ellipse_286" data-name="Ellipse 286" fill="#00659b" stroke="#fff" stroke-width="1" opacity="0.6">
    <circle cx="18" cy="18" r="18" stroke="none"/>
    <circle cx="18" cy="18" r="17.5" fill="none"/>
  </g>
  <text id="SUBMIT" transform="translate(52 22)" fill="#212121" font-size="10" font-family="Pretendard-Medium, Pretendard" font-weight="500"><tspan x="0" y="0">SUBMIT</tspan></text>
  <g id="Mask_Group_642" data-name="Mask Group 642" transform="translate(2824 10059)" clip-path="url(#clip-path)">
    <g id="Group_1083" data-name="Group 1083" transform="translate(-2806 -10047) rotate(45)">
      <path id="선_9" data-name="선 9" d="M7.429,1.21H.571A.589.589,0,0,1,0,.6.589.589,0,0,1,.571,0H7.429A.589.589,0,0,1,8,.6.589.589,0,0,1,7.429,1.21Z" transform="translate(0 0)" fill="#fdfdfd"/>
      <path id="선_10" data-name="선 10" d="M.6,8A.589.589,0,0,1,0,7.429V.571A.589.589,0,0,1,.6,0a.589.589,0,0,1,.6.571V7.429A.589.589,0,0,1,.6,8Z" transform="translate(6.79 0)" fill="#fdfdfd"/>
      <path id="선_11" data-name="선 11" d="M.569,7.438a.569.569,0,0,1-.4-.971l6.3-6.3a.569.569,0,1,1,.8.8l-6.3,6.3A.567.567,0,0,1,.569,7.438Z" transform="translate(0.562 0)" fill="#fdfdfd"/>
    </g>
  </g>
</svg>
